<?xml version="1.0" encoding="UTF-8" standalone="no"?>
<svg width="13px" height="29px" viewBox="0 0 13 29" version="1.1" xmlns="http://www.w3.org/2000/svg" xmlns:xlink="http://www.w3.org/1999/xlink">
    <!-- Generator: Sketch 3.8.2 (29753) - http://www.bohemiancoding.com/sketch -->
    <title>oscar</title>
    <desc>Created with Sketch.</desc>
    <defs></defs>
    <g id="Page-1" stroke="none" stroke-width="1" fill="none" fill-rule="evenodd" fill-opacity="0.8">
        <g id="Desktop-HD" transform="translate(-281.000000, -399.000000)" fill="#000000">
            <g id="content" transform="translate(120.000000, 393.000000)">
                <g id="badge" transform="translate(151.000000, 0.000000)">
                    <g id="noun_113503_cc" transform="translate(10.000000, 6.000000)">
                        <g id="Group">
                            <g transform="translate(0.500000, 0.448198)" id="Combined-Shape">
                                <path d="M5.33351741,5.45825884 L3.1651933,5.79533495 C2.94462981,7.33898758 2.72195754,8.88258664 2.5,10.4261237 L3.82265194,12.2711807 L4.57035002,19.42606 L3.38692458,19.42606 C3.05705105,19.42606 2.79134425,19.7341335 2.79134425,20.1153268 L2.79134425,25.6080586 C2.79134425,25.989252 3.05705105,26.2972973 3.38692458,26.2972973 L8.61307515,26.2972973 C8.94294868,26.2972973 9.20865547,25.989252 9.20865547,25.6080586 L9.20865547,20.1153268 C9.20865547,19.7341335 8.94294868,19.42606 8.61307515,19.42606 L7.17955785,19.42606 L8.0381213,12.4673467 L9.5,10.4261237 L8.83480643,5.8002331 C8.34402706,5.71971383 7.57576585,5.5674508 6.99907896,5.45825884 L5.33351741,5.45825884 Z M7.41684976,2.88649703 C7.4171954,3.56032412 7.14722709,4.18316288 6.7087202,4.52020927 C6.27021331,4.85725565 5.72985074,4.85725565 5.29134385,4.52020927 C4.85283696,4.18316288 4.58286864,3.56032412 4.58321429,2.88649703 C4.58286864,2.21266993 4.85283696,1.58983117 5.29134385,1.25278479 C5.72985074,0.915738405 6.27021331,0.915738405 6.7087202,1.25278479 C7.14722709,1.58983117 7.4171954,2.21266993 7.41684976,2.88649703 L7.41684976,2.88649703 Z"></path>
                            </g>
                        </g>
                    </g>
                </g>
            </g>
        </g>
    </g>
</svg>